<svg width="25" height="25" viewBox="0 0 25 25" fill="none" xmlns="http://www.w3.org/2000/svg">
<circle cx="12.4286" cy="12.5714" r="12.4286" fill="#38383C"/>
<path d="M12.4285 8.94642C11.7116 8.94642 11.0107 9.15902 10.4146 9.55734C9.81848 9.95566 9.35385 10.5218 9.07948 11.1842C8.80512 11.8466 8.73333 12.5754 8.8732 13.2786C9.01307 13.9818 9.35832 14.6277 9.86529 15.1347C10.3723 15.6416 11.0182 15.9869 11.7213 16.1268C12.4245 16.2666 13.1534 16.1948 13.8158 15.9205C14.4782 15.6461 15.0443 15.1815 15.4426 14.5854C15.8409 13.9892 16.0535 13.2884 16.0535 12.5714C16.0535 11.61 15.6716 10.688 14.9918 10.0082C14.312 9.32833 13.39 8.94642 12.4285 8.94642ZM12.4285 14.9881C11.9506 14.9881 11.4833 14.8463 11.0859 14.5808C10.6885 14.3153 10.3788 13.9378 10.1958 13.4962C10.0129 13.0546 9.96507 12.5687 10.0583 12.0999C10.1516 11.6312 10.3817 11.2006 10.7197 10.8626C11.0577 10.5246 11.4883 10.2944 11.9571 10.2012C12.4259 10.1079 12.9118 10.1558 13.3534 10.3387C13.795 10.5216 14.1724 10.8314 14.4379 11.2288C14.7035 11.6262 14.8452 12.0934 14.8452 12.5714C14.8432 13.2117 14.588 13.8253 14.1352 14.2781C13.6824 14.7308 13.0689 14.9861 12.4285 14.9881ZM15.7515 5.01933H9.10563C7.98399 5.01933 6.90828 5.4649 6.11516 6.25803C5.32204 7.05115 4.87646 8.12685 4.87646 9.2485V15.8943C4.87646 17.016 5.32204 18.0917 6.11516 18.8848C6.90828 19.6779 7.98399 20.1235 9.10563 20.1235H15.7515C16.8731 20.1235 17.9488 19.6779 18.7419 18.8848C19.5351 18.0917 19.9806 17.016 19.9806 15.8943V9.2485C19.9806 8.12685 19.5351 7.05115 18.7419 6.25803C17.9488 5.4649 16.8731 5.01933 15.7515 5.01933V5.01933ZM18.7723 15.8943C18.7723 16.291 18.6942 16.6839 18.5424 17.0504C18.3905 17.4169 18.168 17.7499 17.8875 18.0304C17.607 18.3109 17.274 18.5334 16.9075 18.6852C16.541 18.837 16.1482 18.9152 15.7515 18.9152H9.10563C8.70893 18.9152 8.31611 18.837 7.94961 18.6852C7.5831 18.5334 7.25009 18.3109 6.96958 18.0304C6.68907 17.7499 6.46656 17.4169 6.31475 17.0504C6.16293 16.6839 6.0848 16.291 6.0848 15.8943V9.2485C6.0848 8.44732 6.40306 7.67896 6.96958 7.11245C7.5361 6.54593 8.30446 6.22767 9.10563 6.22767H15.7515C16.1482 6.22767 16.541 6.3058 16.9075 6.45761C17.274 6.60942 17.607 6.83194 17.8875 7.11245C18.168 7.39296 18.3905 7.72597 18.5424 8.09248C18.6942 8.45898 18.7723 8.8518 18.7723 9.2485V15.8943ZM17.2619 8.64433C17.2619 8.82357 17.2087 8.99879 17.1091 9.14782C17.0096 9.29685 16.868 9.41301 16.7024 9.4816C16.5368 9.55019 16.3546 9.56814 16.1788 9.53317C16.003 9.4982 15.8416 9.41189 15.7148 9.28515C15.5881 9.15841 15.5018 8.99693 15.4668 8.82113C15.4318 8.64534 15.4498 8.46312 15.5184 8.29753C15.587 8.13193 15.7031 7.99039 15.8521 7.89081C16.0012 7.79123 16.1764 7.73808 16.3556 7.73808C16.596 7.73808 16.8265 7.83356 16.9964 8.00352C17.1664 8.17347 17.2619 8.40398 17.2619 8.64433Z" fill="#F8F8F8"/>
</svg>
